<?xml version="1.0" standalone="no"?>
<!DOCTYPE svg PUBLIC "-//W3C//DTD SVG 20010904//EN"
 "http://www.w3.org/TR/2001/REC-SVG-20010904/DTD/svg10.dtd">
<svg version="1.0" xmlns="http://www.w3.org/2000/svg"
 width="1024.000000pt" height="1024.000000pt" viewBox="0 0 1024.000000 1024.000000"
 preserveAspectRatio="xMidYMid meet">

<g transform="translate(0.000000,1024.000000) scale(0.100000,-0.100000)"
fill="#000000" stroke="none">
<path d="M0 5120 l0 -5120 5120 0 5120 0 0 5120 0 5120 -5120 0 -5120 0 0
-5120z m5340 2895 c390 -60 744 -215 1017 -447 109 -92 238 -229 309 -327 l58
-80 75 -16 c91 -20 240 -75 336 -123 223 -111 413 -316 476 -512 46 -141 35
-344 -26 -499 -98 -250 -399 -573 -743 -798 -344 -224 -799 -422 -1198 -522
-207 -51 -201 -53 -99 24 107 80 193 161 206 194 5 13 7 33 3 44 -5 17 -12 19
-54 14 -26 -3 -110 -24 -186 -45 -267 -77 -484 -122 -764 -159 -191 -25 -699
-26 -751 -1 -19 9 -79 35 -134 58 -118 50 -267 127 -349 181 -32 22 -60 39
-63 39 -3 0 -28 18 -57 40 -28 22 -59 46 -69 54 -38 28 -124 114 -173 171 -71
83 -102 136 -135 230 -67 190 -17 374 147 541 43 43 46 45 60 27 14 -17 14
-16 4 5 -10 20 -8 26 7 38 10 7 24 11 31 9 7 -3 10 -1 7 5 -6 9 34 36 48 32 5
-1 6 2 3 7 -4 5 -2 12 4 16 5 3 10 1 10 -5 0 -6 5 -8 10 -5 6 4 7 12 4 18 -4
7 -4 9 1 5 4 -4 17 -3 29 3 11 6 -1 -10 -28 -35 -26 -25 -53 -43 -59 -39 -6 4
-7 1 -2 -7 4 -7 3 -15 -2 -19 -20 -12 -92 -134 -108 -181 -43 -130 -37 -248
18 -364 94 -197 331 -358 647 -440 162 -41 263 -49 582 -43 357 6 549 32 929
127 900 226 1554 655 1721 1130 26 72 35 229 18 301 -27 113 -94 212 -182 269
-88 57 -93 54 -59 -37 45 -123 62 -214 62 -336 0 -107 -1 -112 -39 -191 l-38
-81 -13 80 c-65 412 -253 758 -561 1032 -302 268 -673 433 -1135 503 -137 21
-155 30 -155 78 0 13 5 33 11 44 11 20 17 21 128 15 64 -3 163 -13 221 -22z
m-1470 -310 c21 -7 28 -25 9 -25 -7 0 -26 -16 -44 -35 l-33 -34 -6 24 c-3 13
-19 31 -35 41 l-28 17 41 41 41 42 17 -32 c10 -18 27 -35 38 -39z m813 -91 c7
-14 26 -34 42 -44 l29 -19 -27 -10 c-14 -6 -33 -24 -42 -41 -13 -25 -19 -29
-30 -20 -8 7 -17 20 -20 29 -3 10 -20 24 -37 33 l-33 15 33 17 c18 9 38 28 44
41 14 32 24 31 41 -1z m-1403 -24 c7 -16 16 -30 19 -30 4 0 15 -6 26 -13 17
-13 15 -17 -24 -56 -24 -24 -44 -41 -45 -39 -2 2 -9 13 -15 25 -6 13 -26 30
-44 39 l-32 17 32 15 c18 8 37 28 44 44 15 36 23 35 39 -2z m930 -90 c12 -41
31 -93 42 -115 48 -94 78 -116 231 -174 38 -14 67 -30 65 -36 -1 -5 -37 -22
-78 -36 -98 -33 -128 -50 -166 -91 -39 -40 -64 -90 -93 -183 -13 -38 -25 -77
-28 -85 -2 -8 -19 26 -37 75 -41 114 -71 171 -104 203 -32 29 -124 73 -204 96
-32 9 -58 20 -58 25 0 4 43 22 95 41 169 58 210 105 280 318 9 30 21 50 25 45
4 -4 17 -42 30 -83z m1485 -120 c33 -86 69 -122 157 -156 37 -14 68 -29 68
-34 0 -5 -15 -12 -32 -15 -18 -4 -56 -18 -84 -30 -56 -25 -75 -50 -115 -153
-23 -61 -35 -74 -44 -49 -31 89 -51 132 -72 158 -26 31 -97 71 -146 83 -37 9
-28 20 28 36 25 7 65 25 89 41 39 24 48 37 77 113 18 47 36 83 40 81 4 -3 19
-36 34 -75z m-586 -175 c45 -116 122 -307 198 -487 l45 -108 379 0 c208 0 379
-4 379 -8 0 -5 -10 -14 -22 -20 -13 -7 -50 -34 -83 -62 -33 -27 -69 -54 -80
-60 -11 -6 -8 -1 8 12 15 13 27 26 27 30 0 6 -259 -124 -320 -160 -19 -12 -57
-33 -85 -48 -27 -14 -60 -34 -75 -44 -14 -9 -69 -43 -122 -74 -69 -40 -98 -63
-98 -76 0 -10 3 -20 8 -22 4 -1 23 -25 41 -53 19 -27 37 -52 40 -55 4 -3 11
-13 16 -22 20 -33 131 -194 165 -238 19 -25 49 -67 67 -94 30 -46 33 -48 41
-27 7 19 12 11 35 -53 14 -42 24 -76 21 -76 -6 0 -350 207 -467 280 -31 20
-54 40 -50 45 5 4 3 5 -4 1 -7 -3 -34 6 -62 21 l-50 28 -63 -35 c-35 -19 -77
-43 -94 -55 -17 -11 -97 -60 -178 -110 -82 -49 -184 -114 -228 -143 -44 -30
-82 -52 -84 -49 -5 5 1 26 72 247 44 140 124 410 124 420 0 9 -84 80 -245 205
-55 43 -158 126 -228 184 l-128 106 385 3 c294 2 385 5 389 15 12 29 197 512
232 605 21 56 41 99 45 95 4 -5 26 -57 49 -118z m-1820 12 c21 -50 58 -83 101
-92 41 -9 37 -22 -10 -36 -49 -15 -78 -41 -97 -88 l-15 -36 -25 48 c-20 41
-33 53 -80 74 l-55 26 53 26 c44 21 58 35 78 74 13 26 25 47 27 47 3 0 13 -20
23 -43z m2783 -294 c39 -36 5 -102 -47 -89 -37 9 -52 48 -31 81 19 29 51 32
78 8z m-2326 -147 c11 -12 29 -26 39 -32 18 -10 18 -12 -13 -28 -18 -9 -38
-28 -44 -41 -14 -32 -32 -32 -46 0 -6 14 -26 34 -44 45 -29 17 -30 20 -12 26
29 10 55 36 66 64 10 24 11 24 22 6 6 -11 20 -29 32 -40z m-451 -56 c9 -17 27
-36 40 -42 29 -13 32 -26 8 -34 -10 -4 -32 -22 -49 -41 l-31 -35 -21 36 c-12
20 -34 41 -49 47 l-28 11 36 18 c19 10 40 30 47 44 15 34 28 33 47 -4z m503
-417 c-7 -9 -7 -18 3 -30 13 -16 12 -17 -2 -5 -25 19 -30 48 -8 48 13 0 15 -3
7 -13z m57 -33 c-3 -5 -12 -10 -18 -10 -7 0 -6 4 3 10 19 12 23 12 15 0z m199
-196 c4 -14 22 -34 43 -46 l35 -21 -33 -16 c-19 -9 -38 -26 -44 -39 -13 -28
-23 -28 -37 2 -6 14 -24 30 -39 37 -36 14 -37 27 -4 39 14 5 34 23 43 40 21
37 28 37 36 4z m-239 -476 c47 -21 45 -81 -4 -99 -17 -7 -28 -3 -47 16 -29 29
-30 45 -4 73 24 26 22 25 55 10z m-1081 -1483 c72 -15 198 -68 217 -92 13 -14
13 -120 3 -311 l-7 -114 -57 59 c-100 102 -215 146 -327 123 -182 -37 -273
-184 -273 -440 0 -168 32 -269 111 -355 135 -147 372 -107 494 82 22 34 43 63
46 63 7 0 19 -255 19 -392 l0 -89 -53 -24 c-113 -49 -188 -67 -312 -72 -184
-8 -298 26 -422 126 -108 87 -184 215 -230 387 -22 86 -26 120 -26 254 -1 226
37 370 135 522 144 222 413 330 682 273z m5324 -626 l2 -636 38 -6 c20 -4 83
-16 140 -28 l102 -22 0 -163 c0 -90 -3 -164 -6 -164 -3 0 -88 19 -187 41 -100
23 -245 53 -322 68 l-140 27 -2 750 c-2 412 -1 755 2 762 3 10 46 12 187 10
l183 -3 3 -636z m-1119 506 c111 -27 188 -70 273 -155 127 -126 180 -266 227
-595 24 -166 64 -585 57 -593 -6 -6 -382 54 -396 63 -6 4 -10 31 -10 61 l0 54
-37 -18 c-85 -43 -145 -56 -253 -56 -118 0 -193 18 -275 64 -73 42 -141 114
-177 188 -28 57 -32 75 -32 151 -1 72 4 95 25 141 34 74 72 116 143 162 121
78 300 112 435 84 40 -8 79 -21 87 -27 11 -9 14 -7 14 12 0 39 -44 122 -83
156 -49 43 -98 57 -192 57 -101 -1 -197 -30 -308 -94 -45 -26 -83 -46 -85 -45
-5 4 -52 180 -52 196 0 22 137 115 223 151 134 57 289 73 416 43z m-1999 -125
l0 -130 -225 0 -225 0 0 -80 0 -80 180 0 180 0 0 -125 0 -125 -180 0 -180 0 0
-82 0 -81 225 7 225 6 0 -130 0 -130 -77 0 c-72 0 -425 -20 -635 -36 l-88 -7
0 556 0 557 398 3 c218 1 398 3 400 5 1 1 2 -56 2 -128z m783 121 c136 -8 154
-12 212 -40 77 -38 135 -93 172 -163 25 -48 28 -63 28 -153 0 -87 -3 -106 -25
-148 -31 -61 -84 -110 -158 -145 -31 -15 -59 -28 -61 -30 -3 -1 26 -33 65 -70
107 -105 351 -379 343 -386 -2 -2 -44 1 -94 5 -49 5 -146 13 -214 19 l-124 10
-132 138 c-73 75 -154 161 -181 191 l-49 54 -5 -174 -5 -174 -177 -3 -178 -2
0 537 0 538 218 3 c119 1 284 -2 365 -7z m-1831 -13 c73 -22 78 -37 78 -230 0
-158 -1 -170 -17 -163 -25 11 -128 18 -155 12 -47 -12 -120 -71 -164 -132 -83
-117 -104 -221 -104 -519 l0 -192 -167 -28 c-93 -15 -176 -30 -185 -33 -17 -4
-18 31 -18 636 l0 641 185 0 185 0 0 -76 0 -76 52 57 c91 100 200 136 310 103z"/>
<path d="M6810 3304 c-95 -31 -120 -59 -120 -135 0 -44 4 -55 33 -84 60 -60
169 -70 263 -24 50 24 68 52 78 120 7 45 5 48 -30 77 -52 43 -163 65 -224 46z"/>
<path d="M5500 3640 l0 -100 105 0 c148 0 185 22 185 107 -1 76 -34 93 -179
93 l-111 0 0 -100z"/>
</g>
</svg>
